<svg xmlns="http://www.w3.org/2000/svg" viewBox="0 0 26.71 26.7"><defs><style>.cls-1{fill:#2e3a59;}</style></defs><g id="Camada_2" data-name="Camada 2"><g id="Camada_1-2" data-name="Camada 1"><path class="cls-1" d="M25.33,18.67H6.67a1.34,1.34,0,1,1,0-2.67H20.59a4,4,0,0,0,3.88-3l2.2-8.65a1.35,1.35,0,0,0,0-.6,1.38,1.38,0,0,0-.25-.55,1.41,1.41,0,0,0-.49-.38,1.28,1.28,0,0,0-.61-.12h-19A4,4,0,0,0,4.89.74,4,4,0,0,0,2.59,0H1.33a1.34,1.34,0,0,0,0,2.67H2.59a1.28,1.28,0,0,1,.84.27,1.3,1.3,0,0,1,.49.74L4,4.32l2.31,9a4,4,0,0,0-2.78,1.3,4,4,0,0,0,3.14,6.7h.24a4.07,4.07,0,0,0-.21,1.89,4,4,0,0,0,2.12,3,4,4,0,0,0,3.69,0A4,4,0,0,0,13.94,25a3.89,3.89,0,0,0,.69-1.77,3.94,3.94,0,0,0-.2-1.89h3.14a3.94,3.94,0,0,0-.2,1.89A3.89,3.89,0,0,0,18.06,25a4,4,0,0,0,3.27,1.71,4.07,4.07,0,0,0,1.85-.45,4,4,0,0,0,1.91-4.92h.24a1.33,1.33,0,1,0,0-2.66ZM23.63,5.33l-1.75,7a1.3,1.3,0,0,1-.49.74,1.28,1.28,0,0,1-.84.27H9l-2-8ZM10.67,24a1.37,1.37,0,0,1-.74-.22,1.46,1.46,0,0,1-.5-.6,1.35,1.35,0,0,1-.07-.77,1.3,1.3,0,0,1,1.05-1.05,1.35,1.35,0,0,1,.77.07,1.37,1.37,0,0,1,.59.5,1.3,1.3,0,0,1,.23.74A1.33,1.33,0,0,1,10.67,24Zm10.66,0a1.39,1.39,0,0,1-.74-.22A1.35,1.35,0,0,1,20,22.41a1.41,1.41,0,0,1,.37-.69,1.36,1.36,0,0,1,.68-.36,1.31,1.31,0,0,1,1.37.57,1.3,1.3,0,0,1,.23.74A1.33,1.33,0,0,1,21.33,24Z"/></g></g></svg>