<svg xmlns="http://www.w3.org/2000/svg" viewBox="0 0 26.98 35.56"><defs><style>.cls-1{fill-opacity:0.13;fill-rule:evenodd;}</style></defs><g id="Camada_2" data-name="Camada 2"><g id="Camada_1-2" data-name="Camada 1"><path class="cls-1" d="M11,0A11,11,0,0,0,7.91.75C4,2.24.87,5.35.16,8.46a6.52,6.52,0,0,0,0,3A6.4,6.4,0,0,0,1.49,14c.22.24,1.47,1.4,1.92,1.78.13.11.38.35.55.52,1.47,1.45,3.19,1.59,4.56.37a3,3,0,0,0,.85-1.17c.35-.81.34-.7.38-6,0-2.91.07-4.94.1-5.08a2.83,2.83,0,0,1,1.27-1.69C12.35,2,14.35,2.61,15.66,4a2.73,2.73,0,0,1,.76,1.18c0,.11-.06.12-.78.12-1.56,0-2,.28-2,1.3a1,1,0,0,0,.13.64,1.54,1.54,0,0,0,.88.64c.15,0,2.09,0,4.3,0l4,0,.21.14a1.1,1.1,0,0,1,.44.84A3.47,3.47,0,0,1,23,10.32a2.89,2.89,0,0,0-.34.57c0,.09.17.2.4.27.07,0,.13.08.13.11a3.42,3.42,0,0,1-.68,1.22c-.61.74-1.35,1.09-3.41,1.62-2.26.58-3.34,1.15-4.12,2.19-.54.72-2.08,3.15-3.45,5.46-.34.57-.75,1.21-.9,1.4l-.28.36-.94-.79c-1-.85-3.39-2.85-4.71-3.93-.43-.36-1.17-1-1.63-1.38-1.2-1-1.4-1.11-1.92-.91a1.09,1.09,0,0,0-.72,1.1A1.56,1.56,0,0,0,1,18.91a6.6,6.6,0,0,1,1.63,2.92,5.6,5.6,0,0,1,.11,1.38A6.42,6.42,0,0,1,2.51,25c-.09.45-.38,1.45-.63,2.24C.76,30.74.57,31.53.45,33c-.13,1.62.08,1.95,1.37,2.25a12.54,12.54,0,0,0,5.42,0l1-.2c.6-.11,3.08-.82,6.39-1.82a25.6,25.6,0,0,1,2.83-.72l.93-.17a12.14,12.14,0,0,1,1.35-.06,6.25,6.25,0,0,1,5,2c.79.85,1.17,1,1.77.57.27-.18.32-.26.45-.73a1,1,0,0,0,0-.68c-.12-.51-.24-.69-.84-1.25a8.5,8.5,0,0,0-4.87-2.46,15.17,15.17,0,0,0-3.16,0l-.85.15c-.35.06-1,.21-1.88.41-.21.05-2,.58-3.21.95a43.25,43.25,0,0,1-5.55,1.45,18.82,18.82,0,0,1-3.78.06A13.16,13.16,0,0,1,3.7,29c.36-1.11.94-3.14,1-3.65A13.89,13.89,0,0,0,5,22.86a2.45,2.45,0,0,1,0-.56c.06,0,.49.36,3.07,2.53a12,12,0,0,0,1.31,1,1.44,1.44,0,0,0,1.06.24c1.08,0,1.17-.11,3.34-3.62C14.7,21,15.67,19.4,16,19c.92-1.48,1.47-1.82,3.95-2.45a10.66,10.66,0,0,0,2.72-.92A4,4,0,0,0,24,14.42a9.26,9.26,0,0,0,1.75-3.74c0-.18.08-.45.11-.6a8.06,8.06,0,0,0-.05-2.29A2.7,2.7,0,0,0,24,5.5a11.76,11.76,0,0,0-3.52-.21l-1.61,0-.19-.53a7.47,7.47,0,0,0-.87-1.9A6.26,6.26,0,0,0,13.7.14,11.69,11.69,0,0,0,11,0ZM7.69,3.94c0,.14-.06.5-.1.79s-.07,2-.08,4.74c0,4.13,0,4.21-.14,4.64s-.34.76-.59.84-1.15-.34-2.2-1.34l-.91-.85A3.66,3.66,0,0,1,2.22,9.55,5.37,5.37,0,0,1,4.37,5.91,11.65,11.65,0,0,1,7.58,3.69C7.71,3.69,7.72,3.71,7.69,3.94Z"/></g></g></svg>