<svg xmlns="http://www.w3.org/2000/svg" viewBox="0 0 18.93 18.92"><defs><style>.cls-1{fill:#fff;}</style></defs><g id="Camada_2" data-name="Camada 2"><g id="Camada_1-2" data-name="Camada 1"><path class="cls-1" d="M18,13.23H4.72A.91.91,0,0,1,4.06,13a1,1,0,0,1-.28-.67,1,1,0,0,1,.94-.94h9.87a2.82,2.82,0,0,0,1.74-.6,2.86,2.86,0,0,0,1-1.55L18.9,3.06a1,1,0,0,0,0-.42.88.88,0,0,0-.18-.39A.85.85,0,0,0,18.38,2,.8.8,0,0,0,18,1.89H4.5a2.88,2.88,0,0,0-1-1.37A2.78,2.78,0,0,0,1.83,0H.94A.91.91,0,0,0,.28.28.91.91,0,0,0,0,1a.92.92,0,0,0,.28.66.91.91,0,0,0,.66.28h.89a.92.92,0,0,1,.6.19,1,1,0,0,1,.35.53l.05.45L4.47,9.45a2.82,2.82,0,0,0-2,.92,2.85,2.85,0,0,0-.74,2,2.9,2.9,0,0,0,.92,2,2.85,2.85,0,0,0,2,.74h.17a2.91,2.91,0,0,0-.14,1.34,2.83,2.83,0,0,0,.49,1.25,2.79,2.79,0,0,0,1,.89,2.82,2.82,0,0,0,1.31.32,2.88,2.88,0,0,0,1.31-.32,2.79,2.79,0,0,0,1-.89,2.83,2.83,0,0,0,.49-1.25,2.79,2.79,0,0,0-.15-1.34h2.23a2.91,2.91,0,0,0-.14,1.34,2.83,2.83,0,0,0,.49,1.25,2.79,2.79,0,0,0,1,.89,2.82,2.82,0,0,0,1.31.32,2.88,2.88,0,0,0,1.31-.32,2.79,2.79,0,0,0,1-.89,2.83,2.83,0,0,0,.49-1.25,2.79,2.79,0,0,0-.15-1.34H18a1,1,0,0,0,.95-.95.91.91,0,0,0-.28-.66A1,1,0,0,0,18,13.23ZM16.74,3.78l-1.23,5a1,1,0,0,1-.35.53.92.92,0,0,1-.6.19H6.41L5,3.78ZM7.56,17a.93.93,0,0,1-.87-.58,1,1,0,0,1-.06-.55,1,1,0,0,1,.26-.48.84.84,0,0,1,.49-.26.91.91,0,0,1,.54,0,1,1,0,0,1,.43.35,1,1,0,0,1,.15.52,1,1,0,0,1-.27.67A1,1,0,0,1,7.56,17Zm7.56,0a1,1,0,0,1-.53-.16,1.1,1.1,0,0,1-.35-.42,1,1,0,0,1-.05-.55,1,1,0,0,1,.26-.48.85.85,0,0,1,.48-.26.93.93,0,0,1,.55,0,1,1,0,0,1,.58.87,1,1,0,0,1-.27.67A1,1,0,0,1,15.12,17Z"/></g></g></svg>