<svg xmlns="http://www.w3.org/2000/svg" viewBox="0 0 19.25 24.07"><defs><style>.cls-1{fill:#2e3a59;}</style></defs><g id="Camada_2" data-name="Camada 2"><g id="Camada_1-2" data-name="Camada 1"><path class="cls-1" d="M13.24,14.44H6a1.25,1.25,0,0,0-.86.35,1.23,1.23,0,0,0-.35.85A1.21,1.21,0,0,0,6,16.85h7.22a1.21,1.21,0,0,0,1.2-1.21,1.23,1.23,0,0,0-.35-.85A1.25,1.25,0,0,0,13.24,14.44Zm0-4.81H8.42a1.19,1.19,0,0,0-.85.35,1.21,1.21,0,0,0,0,1.7,1.19,1.19,0,0,0,.85.35h4.82a1.2,1.2,0,1,0,0-2.4Zm2.4-7.22H14.22A3.66,3.66,0,0,0,12.91.67,3.56,3.56,0,0,0,10.83,0H8.42A3.5,3.5,0,0,0,6.35.67,3.62,3.62,0,0,0,5,2.41H3.61A3.6,3.6,0,0,0,0,6V20.46a3.62,3.62,0,0,0,3.61,3.61h12a3.62,3.62,0,0,0,3.61-3.61V6a3.6,3.6,0,0,0-3.61-3.61ZM7.22,3.61a1.21,1.21,0,0,1,.35-.85,1.19,1.19,0,0,1,.85-.35h2.41a1.19,1.19,0,0,1,.85.35,1.17,1.17,0,0,1,.35.85v1.2H7.22Zm9.63,16.85a1.2,1.2,0,0,1-.36.85,1.21,1.21,0,0,1-.85.35h-12a1.23,1.23,0,0,1-.85-.35,1.19,1.19,0,0,1-.35-.85V6a1.17,1.17,0,0,1,.35-.85,1.2,1.2,0,0,1,.85-.36h1.2V6a1.23,1.23,0,0,0,.35.85A1.25,1.25,0,0,0,6,7.22h7.22a1.25,1.25,0,0,0,.85-.35A1.23,1.23,0,0,0,14.44,6V4.81h1.2A1.23,1.23,0,0,1,16.85,6Z"/></g></g></svg>