<svg xmlns="http://www.w3.org/2000/svg" viewBox="0 0 8.27 3.1"><defs><style>.cls-1{fill:#2e3a59;}</style></defs><g id="Camada_2" data-name="Camada 2"><g id="Camada_1-2" data-name="Camada 1"><path class="cls-1" d="M7.3.92V.47A.47.47,0,0,0,6.85,0a4.12,4.12,0,0,0-2,.92V.38H3.42V1a4.13,4.13,0,0,0-2-.95h0A.47.47,0,0,0,1,.46V.92H0V2.18H1v.45a.47.47,0,0,0,.45.47h0a4.13,4.13,0,0,0,2-.92v.54H4.85V2.15a4.22,4.22,0,0,0,2,1h0a.46.46,0,0,0,.46-.46V2.18h1V.92ZM1,1.93H.25V1.17H1v.76Zm2.45-.06-.1.07a4.13,4.13,0,0,1-1.89.91.23.23,0,0,1-.21-.22V.46A.22.22,0,0,1,1.43.25h0a4.15,4.15,0,0,1,1.84.91l.14.1v.16h-1v.26h1v.19Zm1.18.6H3.67V.63H4.6Zm2.45.17a.21.21,0,0,1-.21.21h0A4.18,4.18,0,0,1,5,1.94l-.14-.1V1.68h.48V1.42H4.85V1.23L5,1.16A4.12,4.12,0,0,1,6.85.25a.22.22,0,0,1,.2.22V2.64Zm1-.71H7.3V1.17H8Z"/><path class="cls-1" d="M5.84,1.42H5.59v.26h.25Z"/></g></g></svg>