<svg xmlns="http://www.w3.org/2000/svg" viewBox="0 0 8.35 4.95"><defs><style>.cls-1{fill:#0040d5;}</style></defs><g id="Camada_2" data-name="Camada 2"><g id="Camada_1-2" data-name="Camada 1"><path class="cls-1" d="M8.11.23A.8.8,0,0,0,7,.23L4.15,3,1.35.23A.79.79,0,0,0,.79,0,.78.78,0,0,0,.06.49.77.77,0,0,0,0,.79a.81.81,0,0,0,.06.31.85.85,0,0,0,.17.25L3.59,4.71a.65.65,0,0,0,.26.17.82.82,0,0,0,.3.07.82.82,0,0,0,.31-.07.7.7,0,0,0,.25-.17l3.4-3.36a.88.88,0,0,0,.18-.25A1.07,1.07,0,0,0,8.35.79a1,1,0,0,0-.06-.3A.81.81,0,0,0,8.11.23Z"/></g></g></svg>