<svg xmlns="http://www.w3.org/2000/svg" viewBox="0 0 10.26 17.82"><g id="Camada_2" data-name="Camada 2"><g id="Camada_1-2" data-name="Camada 1"><path d="M.43,9.89,8,17.43a1.42,1.42,0,0,0,.43.29,1.29,1.29,0,0,0,.51.1,1.34,1.34,0,0,0,.52-.1,1.42,1.42,0,0,0,.43-.29,1.33,1.33,0,0,0,.39-.94,1.32,1.32,0,0,0-.39-.94L3.27,8.88l6.6-6.6A1.33,1.33,0,0,0,9.87.4,1.13,1.13,0,0,0,9.44.11,1.35,1.35,0,0,0,8.92,0a1.3,1.3,0,0,0-.51.11A1.13,1.13,0,0,0,8,.4L.43,7.93a1.42,1.42,0,0,0-.32.45,1.36,1.36,0,0,0,0,1.07,1.28,1.28,0,0,0,.32.44Z"/></g></g></svg>