<svg xmlns="http://www.w3.org/2000/svg" viewBox="0 0 16.59 17"><defs><style>.cls-1{fill:#2e3a59;}</style></defs><g id="Camada_2" data-name="Camada 2"><g id="Camada_1-2" data-name="Camada 1"><path class="cls-1" d="M16.28,5.55c-.73,0-1.45.06-2.18,0A5.36,5.36,0,0,0,14.73,3a.3.3,0,0,0-.51-.21c-.6.47-1.26.86-1.87,1.31a4.56,4.56,0,0,0-1.61-1A2.81,2.81,0,0,0,10,.21C9.24-.33,8.81.27,8.58,1a1.16,1.16,0,0,0-1-.68c-.51,0-.7.4-.76.87A1,1,0,0,0,6.22,1c-.44,0-.77.42-.9.79-.35,1,.12,2.41,1.32,2.42C4.26,6.56,4.55,11.34.34,11.41a.3.3,0,0,0-.31.25.22.22,0,0,0,0,.21H0A.26.26,0,0,0,.1,12c1,1.87,3.23,2.55,5.4,2.7a3,3,0,0,1-.14,1.07,2.18,2.18,0,0,0-1.11.81c-.19.25.16.52.4.4l.62-.35c.09-.05.24-.11.37-.19l.06,0c.21.15.45.37.71.24a.27.27,0,0,0,.14-.23.43.43,0,0,0-.15-.28.27.27,0,0,0-.19-.06c-.1-.07-.21-.18-.33-.27a3.76,3.76,0,0,0,0-1.16,17.21,17.21,0,0,0,2.52-.06c.34,0,.67-.09,1-.16.09.32.07.66.13,1l-.05,0c-.16.26-.42.43-.58.69s.15.57.4.4a1.64,1.64,0,0,0,.45-.46c.22.28.53.64.78.54a.27.27,0,0,0,.12-.44c.16.22,0,0,0-.06L10.35,16l-.27-.3a.27.27,0,0,0,0-.18c-.1-.34-.15-.74-.29-1.09a5.74,5.74,0,0,0,4.58-5.15,4.81,4.81,0,0,0,0-.85A5.54,5.54,0,0,0,16.55,6,.31.31,0,0,0,16.28,5.55ZM14.12,3.49a5.87,5.87,0,0,1-.65,2,7,7,0,0,0-.85-1.15C13.12,4.07,13.62,3.77,14.12,3.49Zm-8.3-1.3a.88.88,0,0,1,.36-.6c.28-.17.63.57.71.73.17.33.63.09.57-.24,0-.16-.23-1.23.19-1.15s.63.95.7,1.32S9,2.5,9,2.16,9.19.06,9.82,1a2.72,2.72,0,0,1,.3,2A3.41,3.41,0,0,0,8.74,3,4.26,4.26,0,0,0,6.85,4a.19.19,0,0,0-.07-.11A1.47,1.47,0,0,1,5.82,2.19ZM9.21,13.82c-2.49.55-6.7.5-8.47-1.74a4.17,4.17,0,0,0,4-2.76c.66-1.6,1-3.26,2.2-4.56C8.84,2.64,11.67,3.89,13,6,15.06,9.39,12.73,13.05,9.21,13.82ZM14.3,7.69a6.16,6.16,0,0,0-.48-1.51,17.22,17.22,0,0,0,1.9,0A7.76,7.76,0,0,1,14.3,7.69Z"/><path class="cls-1" d="M10,9.35c-.25-.29-.65.12-.41.41.45.57.51,1.27-.17,1.67s-.89,0-1-.51a2.62,2.62,0,0,0,0-.56c0-.29-.51-.42-.56-.07a.17.17,0,0,0,0,.07h0v0a2.53,2.53,0,0,0,0,.55,1.19,1.19,0,0,1-.8,1.13c-.92.26-.32-1.27-.17-1.55s-.24-.61-.45-.35S5,12,5.09,10.79A1.76,1.76,0,0,1,6.81,9.23C7,9.22,7,9,6.85,9a2,2,0,0,0-2.32,2c0,.41.21.89.67.9a1.33,1.33,0,0,0,.86-.35.94.94,0,0,0,.85,1.16,1.29,1.29,0,0,0,1.33-.86A1,1,0,0,0,9.52,12,1.61,1.61,0,0,0,10,9.35Z"/><path class="cls-1" d="M9.21,5.08a1,1,0,0,0-.29,1.84c.11.07.29,0,.24-.18-.19-.46-.37-.92.27-1.06a1,1,0,0,1,1.09.88c.08.42.72.24.64-.18A1.58,1.58,0,0,0,9.21,5.08Z"/></g></g></svg>