<svg xmlns="http://www.w3.org/2000/svg" viewBox="0 0 13.2 18"><defs><style>.cls-1{fill:#2e3a59;}</style></defs><g id="Camada_2" data-name="Camada 2"><g id="Camada_1-2" data-name="Camada 1"><path class="cls-1" d="M13.2.3a.29.29,0,0,0-.3-.3A2.43,2.43,0,0,0,11,1,9.37,9.37,0,0,0,7.8.6,9.41,9.41,0,0,0,4.62,1,2.43,2.43,0,0,0,2.7,0a.3.3,0,0,0-.3.3A16.84,16.84,0,0,0,2.69,3,5.13,5.13,0,0,0,2.4,4.8a5.56,5.56,0,0,0,5.4,5.4,5.56,5.56,0,0,0,5.4-5.4A5.13,5.13,0,0,0,12.91,3,15.71,15.71,0,0,0,13.2.3ZM7.8,9.6A5,5,0,0,1,3,4.8a4.53,4.53,0,0,1,.28-1.69.25.25,0,0,0,0-.17A17.61,17.61,0,0,1,3,.63a1.81,1.81,0,0,1,1,.67,4.1,4.1,0,0,0-.41.26A.3.3,0,0,0,4,2,6.23,6.23,0,0,1,7.8,1.2,6.23,6.23,0,0,1,11.58,2a.33.33,0,0,0,.19.06A.28.28,0,0,0,12,2,.29.29,0,0,0,12,1.56a3.21,3.21,0,0,0-.41-.26A1.88,1.88,0,0,1,12.59.63a17.61,17.61,0,0,1-.28,2.31.32.32,0,0,0,0,.17A4.5,4.5,0,0,1,12.6,4.8,5,5,0,0,1,7.8,9.6Z"/><path class="cls-1" d="M12.16,15.64a6.3,6.3,0,0,0,.44-2.44,3.59,3.59,0,0,0-2-3,.31.31,0,0,0-.4.13.31.31,0,0,0,.14.41A3.06,3.06,0,0,1,12,13.2a4.87,4.87,0,0,1-.55,2.53.31.31,0,0,0,.25.47c.9,0,.9.45.9.6,0,.39-.45.6-.9.6h-.3a.3.3,0,0,0,0,.6h.3c.87,0,1.5-.51,1.5-1.2A1.14,1.14,0,0,0,12.16,15.64Z"/><path class="cls-1" d="M4.2,17.4H3.9c-.45,0-.9-.21-.9-.6,0-.15,0-.6.9-.6a.31.31,0,0,0,.25-.47A5,5,0,0,1,3.6,13.2a3.06,3.06,0,0,1,1.63-2.43A.3.3,0,0,0,5,10.23a3.61,3.61,0,0,0-2,3,6.3,6.3,0,0,0,.44,2.44,1.14,1.14,0,0,0-1,1.16c0,.69.63,1.2,1.5,1.2h.3a.3.3,0,0,0,.3-.3A.29.29,0,0,0,4.2,17.4Z"/><path class="cls-1" d="M2.7,13.5a.29.29,0,0,0-.3-.3A.58.58,0,0,1,2,13c-.22-.26-.53-1-.21-2.71C2,9.41,1.55,8.91,1.11,8.8A.92.92,0,0,0,0,9.51a.3.3,0,0,0,.19.38A.32.32,0,0,0,.59,9.7c.07-.23.22-.36.37-.32s.33.3.25.77c-.28,1.52-.17,2.59.34,3.2a1.16,1.16,0,0,0,.85.45A.29.29,0,0,0,2.7,13.5Z"/><path class="cls-1" d="M9.6,15.62a30.22,30.22,0,0,1,.29-4.16.3.3,0,0,0-.58-.12A29.26,29.26,0,0,0,9,15.6H9a.3.3,0,1,0,0,.6h.3c.9,0,.9.45.9.6,0,.39-.45.6-.9.6H9a.9.9,0,0,1-.9-.9V11.1a.29.29,0,0,0-.3-.3.3.3,0,0,0-.3.3v5.4a.9.9,0,0,1-.9.9H6.3c-.45,0-.9-.21-.9-.6,0-.15,0-.6.9-.6h.3a.3.3,0,1,0,0-.6h0a29.26,29.26,0,0,0-.31-4.26.29.29,0,0,0-.35-.23.29.29,0,0,0-.23.35A30.22,30.22,0,0,1,6,15.62,1.17,1.17,0,0,0,4.8,16.8c0,.69.63,1.2,1.5,1.2h.3a1.51,1.51,0,0,0,1.2-.6A1.51,1.51,0,0,0,9,18h.3c.87,0,1.5-.51,1.5-1.2A1.17,1.17,0,0,0,9.6,15.62Z"/><path class="cls-1" d="M9.75,3.9a.45.45,0,1,0,.45.45A.45.45,0,0,0,9.75,3.9Z"/><path class="cls-1" d="M6.3,4.35a.45.45,0,1,0-.45.45A.45.45,0,0,0,6.3,4.35Z"/><path class="cls-1" d="M9.74,7.83A.32.32,0,0,0,9.33,8c-.05.1-.25.14-.33.14a1,1,0,0,1-.86-.68A1.9,1.9,0,0,0,9,6c0-.6-.66-.6-1.2-.6s-1.2,0-1.2.6a1.9,1.9,0,0,0,.86,1.42,1,1,0,0,1-.86.68s-.27,0-.34-.14a.3.3,0,1,0-.52.28,1,1,0,0,0,.86.46,1.54,1.54,0,0,0,1.2-.65A1.54,1.54,0,0,0,9,8.7a1,1,0,0,0,.87-.46A.31.31,0,0,0,9.74,7.83ZM7.8,6.9c-.25,0-.57-.6-.6-.86a2.65,2.65,0,0,1,.6,0,2.6,2.6,0,0,1,.6,0C8.37,6.3,8.05,6.9,7.8,6.9Z"/></g></g></svg>