<svg xmlns="http://www.w3.org/2000/svg" viewBox="0 0 24.16 21.43"><defs><style>.cls-1{fill:#2e3a59;}</style></defs><g id="Camada_2" data-name="Camada 2"><g id="Camada_1-2" data-name="Camada 1"><path class="cls-1" d="M22,2.27A7.6,7.6,0,0,0,12.1,1.5,7.57,7.57,0,0,0,2.24,13l7.5,7.52a3.36,3.36,0,0,0,2.36,1,3.32,3.32,0,0,0,2.35-1L22,13A7.58,7.58,0,0,0,22,2.27Zm-1.71,9-7.5,7.5a1,1,0,0,1-.3.2.84.84,0,0,1-.35.07.92.92,0,0,1-.36-.07.84.84,0,0,1-.29-.2L3.94,11.25A5.12,5.12,0,0,1,7.57,2.51,5.17,5.17,0,0,1,11.19,4a1.26,1.26,0,0,0,.86.36,1.19,1.19,0,0,0,.46-.1,1.31,1.31,0,0,0,.4-.26,5.16,5.16,0,0,1,7.34,7.25Z"/></g></g></svg>