<svg xmlns="http://www.w3.org/2000/svg" viewBox="0 0 24.02 24.11"><defs><style>.cls-1{fill:#2e3a59;}</style></defs><g id="Camada_2" data-name="Camada 2"><g id="Camada_1-2" data-name="Camada 1"><path class="cls-1" d="M22.93,17.86l-2.5-2.56a3.73,3.73,0,0,0-1.95-1,3.8,3.8,0,0,0-2.16.28l-1.09-1.08a8.46,8.46,0,0,0-12.75-11A8.46,8.46,0,0,0,2.07,14a8.45,8.45,0,0,0,11.46,1.23l1.07,1.08a3.64,3.64,0,0,0,.64,4.18l2.56,2.56a3.63,3.63,0,0,0,5.13,0,3.61,3.61,0,0,0,.8-4,3.67,3.67,0,0,0-.8-1.19ZM12.68,12.74A6,6,0,0,1,6.1,14a6,6,0,0,1-2.71-2.22,6,6,0,0,1,6.2-9.28,6,6,0,0,1,3.09,1.65A6,6,0,0,1,14,10.78a6,6,0,0,1-1.31,2Zm8.54,8.54a1.05,1.05,0,0,1-.39.27,1.25,1.25,0,0,1-.93,0,1.05,1.05,0,0,1-.39-.27L17,18.72a1.05,1.05,0,0,1-.27-.39,1.27,1.27,0,0,1-.09-.47,1.22,1.22,0,0,1,.09-.46,1.33,1.33,0,0,1,.66-.66,1.22,1.22,0,0,1,.46-.09,1.27,1.27,0,0,1,.47.09,1.05,1.05,0,0,1,.39.27l2.56,2.56a1.05,1.05,0,0,1,.27.39,1.27,1.27,0,0,1,.09.47,1.22,1.22,0,0,1-.09.46,1.05,1.05,0,0,1-.27.39Z"/></g></g></svg>