<svg xmlns="http://www.w3.org/2000/svg" viewBox="0 0 11 10.5"><defs><style>.cls-1{fill:#ffc700;}</style></defs><g id="Camada_2" data-name="Camada 2"><g id="Camada_1-2" data-name="Camada 1"><path class="cls-1" d="M8.66,10.5a.53.53,0,0,1-.18,0l-3-1.57-3,1.57a.42.42,0,0,1-.42,0A.37.37,0,0,1,2,10l.57-3.31L.12,4.38A.37.37,0,0,1,0,4a.39.39,0,0,1,.32-.26l3.32-.49,1.49-3A.4.4,0,0,1,5.5,0a.39.39,0,0,1,.35.22l1.49,3,3.33.49A.38.38,0,0,1,11,4a.37.37,0,0,1-.1.4L8.48,6.73,9,10a.37.37,0,0,1-.15.38A.4.4,0,0,1,8.66,10.5ZM1.23,4.38l2,1.93a.41.41,0,0,1,.11.35L2.86,9.39,5.32,8.1a.38.38,0,0,1,.36,0L8.14,9.39,7.67,6.66a.41.41,0,0,1,.11-.35l2-1.93L7,4a.38.38,0,0,1-.29-.22L5.5,1.28,4.27,3.76A.37.37,0,0,1,4,4Z"/></g></g></svg>